<?xml version="1.0" encoding="UTF-8" standalone="no"?>
<svg width="596px" height="596px" viewBox="0 0 596 596" version="1.1" xmlns="http://www.w3.org/2000/svg" xmlns:xlink="http://www.w3.org/1999/xlink">
    <title>Flyimg</title>
    <g id="Page-1" stroke="none" stroke-width="1" fill="none" fill-rule="evenodd">
        <path d="M393.5,89.9 C393.5,88.3 394.1,86.9 395.2,85.8 C396.3,84.7 397.7,84.1 399.3,84.1 L416.7,84.1 C418.3,84.1 419.7,84.7 420.8,85.8 C421.9,86.9 422.5,88.3 422.5,89.9 L422.5,291.4 C422.5,293 421.9,294.4 420.8,295.5 C419.7,296.6 418.3,297.2 416.7,297.2 L399.3,297.2 C397.7,297.2 396.3,296.6 395.2,295.5 C394.1,294.4 393.5,293 393.5,291.4 L393.5,89.9 L393.5,89.9 Z" id="Shape" fill="#09BFD8"></path>
        <path d="M446.4,183.3 C445.4,181.3 445.4,179.5 446.5,177.8 C447.6,176.2 449.3,175.4 451.5,175.4 L471.6,175.4 C473.8,175.4 475.6,176.5 476.8,178.7 L514.5,259.6 L514.8,259.6 L551.3,178.7 C552.3,176.5 554.4,175.4 557.7,175.4 L575,175.4 C577.4,175.4 579.2,176.2 580.2,177.8 C581.2,179.4 581.2,181.3 580.2,183.3 L487.1,384.8 C486.7,385.8 486,386.7 485.1,387.4 C484.2,388.1 483.1,388.5 481.9,388.5 L463.6,388.5 C461.4,388.5 459.7,387.7 458.6,386.1 C457.5,384.5 457.4,382.5 458.4,380.3 L499.2,293 L446.4,183.3 L446.4,183.3 Z" id="Shape" fill="#09BFD8"></path>
        <path d="M377,96.7 C376.8,95.4 376.2,94.2 375.2,93.2 C372.3,90.8 367.9,88.1 362,85.3 C356,82.5 348.9,81 340.6,81 C333.3,81 326.5,82.2 320.2,84.5 C313.9,86.8 308.4,90.4 303.8,95.1 C299.1,99.9 295.5,105.8 292.8,112.9 C290.2,120 288.8,128.2 288.8,137.5 L288.8,174.7 C284.4,174.8 237.7,175.9 200.9,166.7 C200.9,166.7 231.1,194.1 273,200.4 C276.9,201 288.8,200.5 288.8,200.5 L288.8,291.2 C288.8,292.8 289.4,294.2 290.5,295.3 C291.6,296.4 293,297 294.6,297 L312.6,297 C314.2,297 315.6,296.4 316.7,295.3 C317.8,294.2 318.4,292.8 318.4,291.2 L318.4,200.5 L351.3,200.5 C352.9,200.5 354.3,199.9 355.4,198.8 C356.5,197.7 357.1,196.3 357.1,194.7 L357.1,181 C357.1,177.1 355.2,175.2 351.3,175.2 L318.4,175.2 L318.4,137.5 C318.4,127.2 320.5,119.6 324.8,114.7 C329.1,109.8 334.5,107.4 341.2,107.4 C344.8,107.4 348.6,108.3 352.5,110 C356.3,111.7 359.3,113.3 361.3,114.7 C364.8,117.1 367.3,116.8 368.9,113.8 L376.5,100.1 C377,99.2 377.2,98 377,96.7 L377,96.7 Z" id="Shape" fill="#09BFD8"></path>
        <path d="M267,163.9 C267,163.9 266.1,91 194.4,84 C149.9,79.8 43.3,69.8 17.6,57.2 C17.6,57.2 0.5,109.6 66.7,151.5 C66.7,151.5 74.6,210 137.5,209.7 C137.5,209.7 142.2,241.5 192.6,236 C192.6,236 239.9,231.3 252.3,201.2 C252.3,201.2 200.6,237 164.5,207.5 C164.5,207.5 192.2,204 202.6,190 C202.6,190 117,207.8 95.1,154.4 C95.1,154.4 146.8,165.1 174.1,140.7 C174.1,140.7 69.4,149.6 48.7,92.5 C48.7,92.5 108.9,113.6 164.6,111.3 C193.4,110.2 224.4,107.6 267,163.9 L267,163.9 Z" id="Shape" fill="#F9D128"></path>
        <path d="M340.3,399.3 C340.3,399.7 339.9,400.5 339.3,401.8 C338.3,403.5 336.7,406.9 334.5,412 L310.5,466.8 C307.3,474.2 305.7,478.7 305.7,480.5 C305.7,484.3 307.7,486.1 311.5,486.1 C314.1,486.1 317.2,485.2 320.6,483.3 C324,481.5 326.6,479.2 328.4,476.6 C329.7,475 330.6,474.1 331.3,474.1 C332.1,474.1 332.6,474.5 332.6,475.3 C332.6,477 330.6,479.4 326.8,482.7 C321,487.6 314.3,490.1 307,490.1 C302.1,490.1 298.1,488.9 295,486.3 C291.9,483.8 290.3,480.6 290.3,476.7 C290.3,473.2 292,467.6 295.5,459.8 L317.2,411.4 C317.9,409 318.7,407.2 319.7,406 C320.1,405.5 320.3,405 320.3,404.6 C320.3,403.3 317.2,402.5 311.1,402.1 C310,401.8 309.4,401.4 309.4,400.7 C309.4,399.5 309.9,398.9 311.1,398.9 C311.2,398.9 312.3,399 314.2,399.3 C316.1,399.6 319.3,399.7 323.6,399.7 C329.4,399.7 333.5,399.2 335.9,398.2 C337.3,397.6 338.3,397.4 338.8,397.4 C339.8,397.6 340.3,398.2 340.3,399.3 L340.3,399.3 Z M354.7,360.2 C354.7,366 352,369 346.6,369 C343.8,369 341.5,368.1 339.7,366.4 C337.9,364.7 337,362.5 337,359.8 C337,354.1 340.2,351.2 346.6,351.2 C352,351.3 354.7,354.3 354.7,360.2 L354.7,360.2 Z" id="Shape" fill="#808080"></path>
        <path d="M475.6,413.9 C475.6,417.7 473.8,423.5 470.4,431.4 L455,466.5 C452.5,472.2 451.2,476.3 451.2,478.8 C451.2,481.6 452.8,483 456,483 C460.9,483 465.7,480.4 470.3,475.3 C472,473.5 473.3,472.6 474.3,472.6 C475.1,472.6 475.6,472.9 475.6,473.4 C475.6,475.1 473.2,477.6 468.5,480.9 C461.5,485.9 455.1,488.4 449.2,488.4 C445.3,488.4 442.1,487.4 439.7,485.4 C437.3,483.4 436,480.8 436,477.6 C436,474.1 437.5,468.8 440.6,461.7 L455.9,426.4 C459.5,418.1 461.3,412.6 461.3,410.1 C461.3,405.2 459.2,402.8 455,402.8 C448.4,402.8 441.4,407.4 433.9,416.8 C429,422.8 422.8,434.6 415.3,452.2 L402.8,481.6 C400.9,486.2 399.4,488.5 398.4,488.5 L396.7,488.5 L391.3,488.5 L387.9,488.5 L384.7,488.5 C383.7,488.5 383.2,488.1 383.2,487.5 C383.2,487.1 383.5,486.3 384,485.2 C384.6,484.1 385.3,482.5 386.3,480.4 L408,429 C412.6,418.2 414.9,411.1 414.9,407.8 C414.9,403.9 412.8,402 408.6,402 C403.2,402 396.5,406.5 388.6,415.6 C386.2,418.4 382.5,423.3 377.5,430.2 C375.7,432.7 373.1,437.9 369.8,445.9 L354.1,482.7 C352.4,486.6 351.2,488.5 350.3,488.5 C349.6,488.5 349,488.4 348.6,488.2 C346.4,487.8 345,487.6 344.6,487.6 C340.3,487.6 337.7,487.8 336.9,488.2 C336.6,488.3 336.2,488.4 335.6,488.4 C334.9,488.4 334.6,488 334.6,487.3 C335.3,485.8 336.1,484.1 337.1,482.3 L370.1,405.7 C370.5,405 370.7,404.5 370.7,404.2 C370.7,402.9 369.4,402.3 366.9,402.3 C363,402.3 361.1,401.6 361.1,400.2 C361.1,399.2 361.8,398.7 363.2,398.7 C364.4,398.7 366.4,398.8 369,399.1 C371.6,399.4 373.6,399.5 374.8,399.5 C381.1,399.5 385,399 386.7,398 C387.1,397.9 387.5,397.7 387.9,397.6 C388.7,397.6 389.2,398.1 389.2,399.1 C389.2,399.4 388.6,400.9 387.3,403.7 C386.3,405.7 385,409.1 383.3,413.9 L382.3,416.8 C383.5,415.4 386.2,412.5 390.2,408.1 C396.5,401.1 404.1,397.6 413.2,397.6 C418.9,397.6 423,399 425.3,401.9 C427.7,404.8 429,409.9 429.3,417.2 C438.2,404.1 447.8,397.6 458.1,397.6 C463.4,397.6 467.6,399.1 470.7,402 C474.1,405.1 475.6,409 475.6,413.9 L475.6,413.9 Z" id="Shape" fill="#808080"></path>
        <path d="M582.4,406 C582.4,410.5 580.3,412.7 576.1,412.7 C572.2,412.7 570.3,410.8 570.3,407.1 C570.3,406.7 570.4,406.2 570.5,405.7 C570.6,405.2 570.8,404.5 570.9,403.7 C570.9,403 570.5,402.7 569.7,402.7 C568.3,402.7 566.3,404.2 563.7,407.2 C561.1,410.2 559.8,412.4 559.8,414 C559.8,414.7 560.1,415.5 560.6,416.5 C562.3,420.4 563.1,424.6 563.1,429.2 C563.1,439.1 559.8,447.5 553.2,454.4 C546.6,461.3 537.8,464.7 526.8,464.7 C518.7,464.7 511.5,462.4 505.1,457.8 C494.4,461.6 489,465.7 489,470.3 C489,473.2 491.1,475 495.3,475.7 C503.1,476.9 507.5,477.4 508.5,477.2 L525.8,477.2 C533.7,477.2 539.4,477.6 542.9,478.4 C553.2,480.9 558.4,488.4 558.4,501 C558.4,512.1 554.4,521.7 546.5,529.8 C538,538.4 526.2,542.7 511.2,542.7 C500.4,542.7 490.7,540.2 482.4,535.2 C472.2,529.1 467.2,521.9 467.2,513.7 C467.2,508 469.8,503.3 474.9,499.5 C477.3,497.8 482.5,495.5 490.6,492.4 C482.5,489.1 478.5,484.2 478.5,477.8 C478.5,467.2 486.6,459.6 502.7,455 C498.2,449.2 496,443.2 496,437.2 C496,426.5 499.9,417.3 507.8,409.5 C515.7,401.8 525,397.9 535.9,397.9 C544.2,397.9 551.4,401.7 557.2,409.2 C562.3,401.3 567.8,397.3 573.5,397.3 C579.4,397.4 582.4,400.3 582.4,406 L582.4,406 Z M552.3,508.7 C552.3,505.2 551.2,502.1 549,499.4 C546.8,496.7 544,495 540.6,494.3 C536,493.3 528.7,492.9 518.7,493 L495.1,493 C486.5,497.4 482.1,504.1 482.1,513.2 C482.1,520.9 484.8,527.1 490.3,531.9 C495.8,536.6 503.1,538.9 512.1,538.9 C522.8,538.9 532.2,535.9 540.2,529.8 C548.3,523.9 552.3,516.8 552.3,508.7 L552.3,508.7 Z M548.5,416.2 C548.5,406.5 544.5,401.6 536.4,401.6 C529.7,401.6 523.7,407.4 518.4,419.1 C513.8,429.1 511.5,438.5 511.5,447.3 C511.5,456.4 516,460.9 524.9,460.9 C531.5,460.9 537.1,455.5 541.8,444.8 C546.3,434.8 548.5,425.3 548.5,416.2 L548.5,416.2 Z" id="Shape" fill="#808080"></path>
    </g>
</svg>
