<?xml version="1.0" encoding="UTF-8" standalone="no"?>
<svg width="771px" height="273px" viewBox="0 0 771 273" version="1.1" xmlns="http://www.w3.org/2000/svg" xmlns:xlink="http://www.w3.org/1999/xlink">
    <title>Flyimg</title>
    <g id="Page-1" stroke="none" stroke-width="1" fill="none" fill-rule="evenodd">
        <path d="M515.8,100.3 C515.8,100.7 515.4,101.6 514.7,102.9 C513.7,104.6 512,108.2 509.7,113.6 L484.6,171 C481.2,178.7 479.6,183.5 479.6,185.4 C479.6,189.3 481.6,191.3 485.7,191.3 C488.5,191.3 491.6,190.3 495.2,188.4 C498.8,186.5 501.5,184.1 503.4,181.4 C504.7,179.7 505.7,178.8 506.5,178.8 C507.4,178.8 507.8,179.2 507.8,180.1 C507.8,181.8 505.7,184.4 501.7,187.9 C495.6,193.1 488.7,195.7 480.9,195.7 C475.8,195.7 471.6,194.4 468.3,191.8 C465,189.2 463.4,185.8 463.4,181.8 C463.4,178.2 465.2,172.3 468.9,164.1 L491.6,113.4 C492.3,110.9 493.2,109 494.2,107.7 C494.6,107.1 494.9,106.6 494.9,106.2 C494.9,104.9 491.7,104 485.3,103.6 C484.1,103.3 483.6,102.9 483.6,102.2 C483.6,101 484.2,100.3 485.3,100.3 C485.4,100.3 486.5,100.5 488.6,100.7 C490.6,101 493.9,101.1 498.4,101.1 C504.5,101.1 508.8,100.6 511.3,99.6 C512.7,99 513.8,98.7 514.4,98.7 C515.3,98.6 515.8,99.2 515.8,100.3 L515.8,100.3 Z M530.9,59.4 C530.9,65.5 528.1,68.6 522.4,68.6 C519.5,68.6 517.1,67.7 515.2,65.9 C513.3,64.1 512.4,61.8 512.4,59 C512.4,53 515.7,50 522.5,50 C528.1,50 530.9,53.2 530.9,59.4 L530.9,59.4 Z" id="Shape" fill="#808080"></path>
        <path d="M657.5,115.6 C657.5,119.5 655.7,125.7 652,134 L635.8,170.7 C633.2,176.7 631.9,181 631.9,183.6 C631.9,186.5 633.6,188 637,188 C642.1,188 647.1,185.3 652,179.9 C653.8,178 655.2,177.1 656.2,177.1 C657.1,177.1 657.5,177.4 657.5,178 C657.5,179.8 655,182.4 650,185.9 C642.7,191.1 635.9,193.8 629.8,193.8 C625.7,193.8 622.4,192.7 619.8,190.6 C617.2,188.5 616,185.8 616,182.4 C616,178.8 617.6,173.2 620.8,165.8 L636.8,128.8 C640.6,120.1 642.5,114.4 642.5,111.7 C642.5,106.6 640.3,104 635.9,104 C629,104 621.7,108.9 613.8,118.6 C608.7,124.9 602.2,137.2 594.3,155.7 L581.2,186.4 C579.2,191.2 577.6,193.6 576.6,193.6 L574.9,193.6 L569.2,193.6 L565.6,193.6 L562.2,193.6 C561.2,193.6 560.7,193.2 560.7,192.5 C560.7,192.1 561,191.3 561.6,190.1 C562.2,188.9 563,187.3 564,185.1 L586.7,131.3 C591.5,120 593.9,112.6 593.9,109.1 C593.9,105 591.7,103 587.3,103 C581.6,103 574.6,107.7 566.3,117.2 C563.8,120.1 560,125.2 554.7,132.5 C552.8,135.1 550.1,140.6 546.6,148.9 L530.2,187.4 C528.5,191.5 527.1,193.5 526.3,193.5 C525.6,193.5 525,193.4 524.5,193.2 C522.2,192.8 520.8,192.6 520.3,192.6 C515.8,192.6 513.1,192.8 512.2,193.3 C511.9,193.4 511.5,193.5 510.9,193.5 C510.2,193.5 509.8,193.1 509.8,192.4 C510.5,190.8 511.4,189.1 512.4,187.2 L547,106.9 C547.4,106.2 547.7,105.7 547.7,105.4 C547.7,104.1 546.4,103.4 543.8,103.4 C539.7,103.4 537.7,102.7 537.7,101.2 C537.7,100.2 538.4,99.7 539.9,99.7 C541.2,99.7 543.3,99.8 546,100.1 C548.8,100.4 550.8,100.5 552.1,100.5 C558.7,100.5 562.8,100 564.6,99 C565,98.9 565.5,98.7 565.9,98.6 C566.8,98.6 567.2,99.1 567.2,100.1 C567.2,100.4 566.5,102 565.2,104.9 C564.2,107 562.8,110.5 561,115.6 L559.9,118.7 C561.2,117.3 564,114.2 568.2,109.6 C574.8,102.2 582.8,98.6 592.2,98.6 C598.2,98.6 602.4,100.1 604.9,103.1 C607.4,106.1 608.8,111.5 609.1,119.1 C618.4,105.4 628.5,98.6 639.3,98.6 C644.8,98.6 649.3,100.1 652.5,103.2 C655.9,106.5 657.5,110.5 657.5,115.6 L657.5,115.6 Z" id="Shape" fill="#808080"></path>
        <path d="M769.2,107.3 C769.2,112 767,114.3 762.6,114.3 C758.5,114.3 756.5,112.3 756.5,108.4 C756.5,108 756.6,107.5 756.7,107 C756.9,106.5 757,105.8 757.1,104.9 C757.1,104.2 756.7,103.8 755.8,103.8 C754.3,103.8 752.3,105.4 749.6,108.5 C746.9,111.6 745.6,114 745.6,115.6 C745.6,116.3 745.9,117.2 746.5,118.2 C748.3,122.3 749.1,126.7 749.1,131.5 C749.1,141.8 745.6,150.6 738.7,157.9 C731.8,165.1 722.6,168.7 711,168.7 C702.5,168.7 695,166.3 688.3,161.5 C677.1,165.4 671.5,169.8 671.5,174.6 C671.5,177.7 673.7,179.6 678.1,180.3 C686.3,181.6 690.9,182.1 691.9,181.8 L710,181.8 C718.3,181.8 724.3,182.2 727.9,183.1 C738.7,185.7 744.1,193.6 744.1,206.7 C744.1,218.4 739.9,228.4 731.6,236.9 C722.7,245.9 710.4,250.5 694.6,250.5 C683.2,250.5 673.2,247.9 664.4,242.6 C653.8,236.2 648.4,228.7 648.4,220.1 C648.4,214.1 651.1,209.2 656.5,205.2 C659,203.5 664.4,201 672.9,197.8 C664.4,194.3 660.2,189.2 660.2,182.5 C660.2,171.4 668.6,163.5 685.6,158.7 C680.9,152.6 678.6,146.4 678.6,140.1 C678.6,128.9 682.7,119.2 691,111.1 C699.2,103 709,99 720.4,99 C729.1,99 736.6,102.9 742.7,110.8 C748.1,102.5 753.8,98.3 759.8,98.3 C766.1,98.4 769.2,101.4 769.2,107.3 L769.2,107.3 Z M737.8,214.9 C737.8,211.3 736.6,208 734.3,205.2 C732,202.4 729.1,200.6 725.6,199.8 C720.8,198.8 713.1,198.3 702.6,198.5 L677.9,198.5 C668.8,203.1 664.3,210.1 664.3,219.7 C664.3,227.8 667.2,234.3 672.9,239.2 C678.7,244.1 686.3,246.6 695.7,246.6 C706.9,246.6 716.7,243.4 725.1,237.1 C733.6,230.8 737.8,223.4 737.8,214.9 L737.8,214.9 Z M733.8,118 C733.8,107.8 729.6,102.7 721.1,102.7 C714.1,102.7 707.8,108.8 702.3,121.1 C697.5,131.6 695.1,141.4 695.1,150.6 C695.1,160.1 699.8,164.8 709.1,164.8 C716,164.8 721.9,159.2 726.8,148 C731.5,137.5 733.8,127.5 733.8,118 L733.8,118 Z" id="Shape" fill="#808080"></path>
        <path d="M309.3,28.8 C309.3,27.5 309.8,26.4 310.7,25.5 C311.6,24.6 312.7,24.1 314,24.1 L328.1,24.1 C329.4,24.1 330.5,24.6 331.4,25.5 C332.3,26.4 332.8,27.5 332.8,28.8 L332.8,192.2 C332.8,193.5 332.3,194.6 331.4,195.5 C330.5,196.4 329.4,196.9 328.1,196.9 L314,196.9 C312.7,196.9 311.6,196.4 310.7,195.5 C309.8,194.6 309.3,193.5 309.3,192.2 L309.3,28.8 L309.3,28.8 Z" id="Shape" fill="#09BFD8"></path>
        <path d="M352.3,104.6 C351.5,103 351.5,101.5 352.4,100.2 C353.3,98.9 354.7,98.2 356.5,98.2 L372.8,98.2 C374.6,98.2 376,99.1 377,100.9 L407.6,166.6 L407.8,166.6 L437.4,100.9 C438.2,99.1 440,98.2 442.6,98.2 L456.7,98.2 C458.7,98.2 460.1,98.9 460.9,100.2 C461.7,101.5 461.7,103 460.9,104.6 L385.3,268 C385,268.8 384.4,269.5 383.7,270.1 C383,270.7 382.1,271 381.1,271 L366.3,271 C364.5,271 363.1,270.3 362.2,269 C361.3,267.7 361.3,266.1 362.1,264.3 L395.2,193.4 L352.3,104.6 L352.3,104.6 Z" id="Shape" fill="#09BFD8"></path>
        <path d="M296,34.3 C295.8,33.2 295.3,32.3 294.5,31.5 C292.2,29.5 288.6,27.4 283.8,25.1 C278.9,22.8 273.1,21.6 266.4,21.6 C260.5,21.6 255,22.5 249.9,24.4 C244.8,26.3 240.4,29.2 236.6,33 C232.8,36.9 229.9,41.7 227.7,47.4 C225.6,53.2 224.5,59.8 224.5,67.4 L224.5,97.4 L224.3,97.4 C224.3,97.4 184.6,98.9 153.2,91.1 C153.2,91.1 177.7,113.3 211.7,118.4 C214.9,118.9 224.5,118.5 224.5,118.5 L224.5,192.1 C224.5,193.4 225,194.5 225.9,195.4 C226.8,196.3 227.9,196.8 229.2,196.8 L243.8,196.8 C245.1,196.8 246.2,196.3 247.1,195.4 C248,194.5 248.5,193.4 248.5,192.1 L248.5,118.5 L275,118.5 C276.3,118.5 277.4,118 278.3,117.1 C279.2,116.2 279.7,115.1 279.7,113.8 L279.7,102.7 C279.7,99.6 278.1,98 275,98 L248.3,98 L248.3,67.5 C248.3,59.1 250,52.9 253.5,49 C257,45 261.4,43.1 266.8,43.1 C269.8,43.1 272.8,43.8 275.9,45.2 C279,46.6 281.4,47.9 283.1,49 C285.9,51 288,50.7 289.3,48.3 L295.5,37.2 C296,36.3 296.1,35.4 296,34.3 L296,34.3 Z" id="Shape" fill="#09BFD8"></path>
        <path d="M206.7,88.9 C206.7,88.9 206,29.8 147.8,24.1 C111.7,20.6 25.2,12.5 4.4,2.3 C4.4,2.3 -9.5,44.8 44.2,78.8 C44.2,78.8 50.6,126.3 101.7,126.1 C101.7,126.1 105.5,151.9 146.4,147.4 C146.4,147.4 184.8,143.6 194.8,119.2 C194.8,119.2 152.9,148.2 123.6,124.3 C123.6,124.3 146.1,121.5 154.5,110.1 C154.5,110.1 85.1,124.6 67.3,81.2 C67.3,81.2 109.2,89.8 131.4,70.1 C131.4,70.1 46.5,77.3 29.6,31 C29.6,31 78.4,48.1 123.7,46.3 C147,45.3 172.1,43.2 206.7,88.9 L206.7,88.9 Z" id="Shape" fill="#F9D128"></path>
    </g>
</svg>
