<?xml version="1.0" encoding="UTF-8" standalone="no"?>
<svg width="596px" height="596px" viewBox="0 0 596 596" version="1.1" xmlns="http://www.w3.org/2000/svg" xmlns:xlink="http://www.w3.org/1999/xlink">
    <title>Flyimg</title>
    <g id="Page-1" stroke="none" stroke-width="1" fill="none" fill-rule="evenodd">
        <g id="flyimg-isotype" transform="translate(22.000000, 83.000000)">
            <path d="M361.3,177.6 C361.3,177.6 360.1,73 257.2,63 C193.3,56.8 40.4,42.5 3.5,24.5 C3.5,24.5 -21,99.7 73.9,159.8 C73.9,159.8 85.2,243.8 175.5,243.4 C175.5,243.4 182.2,289.1 254.5,281.1 C254.5,281.1 322.4,274.4 340.2,231.2 C340.2,231.2 266,282.5 214.3,240.2 C214.3,240.2 254.1,235.2 269,215.1 C269,215.1 146.2,240.7 114.8,164 C114.8,164 189,179.3 228.1,144.3 C228.1,144.3 77.9,157.1 48.1,75.2 C48.1,75.2 134.4,105.5 214.4,102.2 C255.7,100.5 300.2,96.7 361.3,177.6 L361.3,177.6 Z" id="Shape" fill="#EFC30C"></path>
            <path d="M547.9,24.3 C542.4,19.6 533.9,14.5 522.3,9 C510.7,3.5 496.9,0.7 480.8,0.7 C466.7,0.7 453.6,3 441.4,7.5 C429.2,12 418.6,18.9 409.6,28.1 C400.6,37.3 393.5,48.8 388.4,62.5 C383.3,76.2 380.7,92.1 380.7,110.1 L380.7,181.6 L380.3,181.6 C380.3,181.6 285.6,185.2 210.8,166.5 C210.8,166.5 269.2,219.5 350.1,231.6 C357.7,232.7 380.7,231.8 380.7,231.8 L380.7,407.1 C380.7,410.2 381.8,412.9 383.9,415 C386.1,417.1 388.7,418.2 391.8,418.2 L426.5,418.2 C429.6,418.2 432.3,417.1 434.4,415 C436.5,412.8 437.7,410.2 437.7,407.1 L437.7,232 L501.2,232 C504.3,232 507,230.9 509.1,228.7 C511.2,226.6 512.4,223.9 512.4,220.8 L512.4,194.3 C512.4,186.8 508.7,183.1 501.2,183.1 L437.7,183.1 L437.7,110.1 C437.7,90.1 441.8,75.4 450.1,66 C458.3,56.6 468.9,51.9 481.9,51.9 C488.9,51.9 496.2,53.6 503.7,56.9 C511.1,60.2 516.8,63.3 520.7,66 C527.4,70.7 532.3,70.1 535.4,64.2 L550.1,37.7 C551.3,35.7 551.7,33.5 551.3,30.9 C551,28.5 549.9,26.3 547.9,24.3 L547.9,24.3 Z" id="Shape" fill="#09BFD8"></path>
        </g>
    </g>
</svg>
